<?xml version="1.0" encoding="utf-8"?>
<!-- Generator: Adobe Illustrator 24.0.1, SVG Export Plug-In . SVG Version: 6.00 Build 0)  -->
<svg version="1.1" id="圖層_1" xmlns="http://www.w3.org/2000/svg" xmlns:xlink="http://www.w3.org/1999/xlink" x="0px" y="0px"
	 viewBox="0 0 85.04 85.04" style="enable-background:new 0 0 85.04 85.04;" xml:space="preserve">
<style type="text/css">
	.st0{fill-rule:evenodd;clip-rule:evenodd;fill:#FBC728;}
	.st1{fill:#FBC728;}
	.st2{fill:#FAC728;}
	.st3{fill-rule:evenodd;clip-rule:evenodd;fill:#FCC728;}
</style>
<path class="st0" d="M28.8,49.83l-2,2.13c-1.73,1.72-0.57,3.4-0.57,3.4c2.21,2.58,4,0.85,4,0.85l2.57-2.41l4,4.11
	c2.27,2.4,4.57,0.14,4.57,0.14c2.02-1.65,0.28-4.11,0.28-4.11l-4.42-4.39l4-4.11l3.99,3.83c2.35,2.14,4.43,0.42,4.43,0.42
	c2.45-1.91-0.14-4.67-0.14-4.67l-4.14-3.69l4.43-4.39l4,4.25c2.36,2.07,4.57-0.14,4.57-0.14c1.72-1.88-0.15-4.11-0.15-4.11
	l-4.42-4.11l2.28-2.4c1.7-1.98,0-3.4,0-3.4c-2.43-1.97-4.28-0.15-4.28-0.15l-2,1.7l-3.58-3.54c-2.35-2.19-4.42-0.56-4.42-0.56
	c-2.07,1.82-0.72,3.54-0.72,3.54l4.72,5.1l-4.29,3.96l-4-3.96c-2.32-2.11-4-0.14-4-0.14c-2.49,1.84-0.43,3.96-0.43,3.96l4,4.39
	l-4.14,3.97l-3.57-3.68c-2.21-2.09-4.14-0.29-4.14-0.29c-2.52,1.33-0.86,3.69-0.86,3.69L28.8,49.83z M43.8,72.21
	c0,0,20.77-8.06,28.99-28.61c0,0,7.99-20.34,1.72-31.02c0,0-3.23-6.79-16.43-6.38c0,0-25.05-0.63-41.99,22.24
	c0,0-13.8,18.15-9.58,36.69c0,0,0.12,8.67,8.86,10.34C15.37,75.47,28.4,79.28,43.8,72.21z M12.51,66.12c0,0-5.01-14.88,7.72-33.85
	c0,0,16.14-24.9,46.28-19.69l-8.71,8.78c0,0-1.8,1.98,0,3.68c0,0,2.33,2.14,4.57-0.71l7.99-7.79c0,0,5.8,17.28-11.14,37.97
	c0,0-17.56,21.5-42.85,15.44l8.86-8.64c0,0,1.82-2.42-0.29-3.97c0,0-2.63-1.41-4.14,0.42L12.51,66.12z"/>
</svg>
