<?xml version="1.0" encoding="utf-8"?>
<!-- Generator: Adobe Illustrator 24.0.1, SVG Export Plug-In . SVG Version: 6.00 Build 0)  -->
<svg version="1.1" id="圖層_1" xmlns="http://www.w3.org/2000/svg" xmlns:xlink="http://www.w3.org/1999/xlink" x="0px" y="0px"
	 viewBox="0 0 85.04 85.04" style="enable-background:new 0 0 85.04 85.04;" xml:space="preserve">
<style type="text/css">
	.st0{fill-rule:evenodd;clip-rule:evenodd;fill:#FBC728;}
	.st1{fill:#FBC728;}
	.st2{fill:#FAC728;}
	.st3{fill-rule:evenodd;clip-rule:evenodd;fill:#FCC728;}
</style>
<path class="st0" d="M57.33,68.52l12.3-12.23l3.16,3.01c1.46,1.46,2.9,4.15,2.9,6.21c0,1.93,0.33,3.64-2.11,6.47
	c-2.86,3.31-10.16,3.08-13.09,0.15L57.33,68.52z M13.76,50c-3.28-1.2-3.61-3.08-3.61-3.9c0-1.9,1.6-4.54,3.08-6.02
	c2.56-2.56,6.47-4.22,10.23-1.36l10.95,8.05l-7.56,9.03L13.76,50z M24.48,33.79c0-1.64,0.11-5.98,2.15-7.67
	c3.99-3.33,7.71-2.92,10.23-0.49l8.84,10.19l-8.92,8.58l-10.15-7.94C25.42,35.22,24.48,33.79,24.48,33.79z M38.36,18.78
	c0-2.29,1.32-5.26,2.71-6.66c1.72-1.71,5.37-3.03,6.78-2.75c1.02,0.21,2.05,1.72,2.7,3.32l5.42,11.85l-8.01,9.14l-8.58-10.95
	C38.51,21.05,38.36,18.78,38.36,18.78z M52.59,56.93L58,51.97l5.05,6.02l-4.52,3.91L52.59,56.93z M55.97,49.03L50.1,54.9
	l-10.52-8.06l8.04-8.42L55.97,49.03z M67.26,52.87l-1.96,2.71l-5.04-6.32l4.07-4.07L67.26,52.87z M62.63,41.69l-4.4,4.63l-7.9-10.16
	l7.22-7.79L62.63,41.69z M29.79,56.93l7.22-8.01l10.72,8.35l-4.4,5.31L29.79,56.93z M46.94,63.48l3.61-3.84l6.18,4.82l-2.41,2.4
	L46.94,63.48z M75.45,74.71l0.12-0.13c2.21-2.37,3.43-5.46,3.43-8.71c0-3.41-1.8-6.53-4.22-8.94l-4.12-4.13L54.41,11.83
	c-1.66-4.07-4.29-5.38-6.21-5.77c-3.11-0.63-6.75,0.77-9.71,3.74c-2.36,2.35-3.65,5.65-3.65,9.29c0,0.56,0.03,1.12,0.09,1.68
	c-3.57-0.73-7.41,0.22-10.28,2.88l-0.14,0.14c-2.01,2.17-3.11,4.99-3.11,7.95c0,0.79,0.08,1.57,0.23,2.33
	c-4.16-0.43-8.21,0.79-10.98,3.56c-2.47,2.47-3.89,5.45-3.89,8.18c0,1.99-0.79,5.03,5.92,7.74l41.34,16.48l4.13,4.12
	C63.03,79.04,70.39,79.42,75.45,74.71z"/>
</svg>
