<?xml version="1.0" encoding="utf-8"?>
<!-- Generator: Adobe Illustrator 24.0.1, SVG Export Plug-In . SVG Version: 6.00 Build 0)  -->
<svg version="1.1" id="圖層_1" xmlns="http://www.w3.org/2000/svg" xmlns:xlink="http://www.w3.org/1999/xlink" x="0px" y="0px"
	 viewBox="0 0 85.04 85.04" style="enable-background:new 0 0 85.04 85.04;" xml:space="preserve">
<style type="text/css">
	.st0{fill-rule:evenodd;clip-rule:evenodd;fill:#FBC728;}
	.st1{fill:#FBC728;}
	.st2{fill:#FAC728;}
	.st3{fill-rule:evenodd;clip-rule:evenodd;fill:#FCC728;}
</style>
<g>
	<path class="st0" d="M46.18,5.68C26.52,3.59,8.86,17.94,6.66,37.84c-2.21,20,12.02,38.13,31.87,40.39
		c19.93,2.26,37.79-12.33,39.81-32.5C80.35,25.67,65.91,7.79,46.18,5.68z M75.13,45.37c-1.85,18.37-18.11,31.65-36.25,29.6
		C20.8,72.92,7.82,56.41,9.83,38.18c2-18.13,18.09-31.21,36.01-29.3C63.82,10.8,76.96,27.11,75.13,45.37z"/>
	<path class="st0" d="M43.43,77.6c0.22-1.17,0.4-2.34,0.52-3.54C46.17,52.88,31.9,36.07,11.21,33.8c-0.68-0.08-1.36-0.14-2.04-0.17
		l-0.51,3.12c0.72,0.03,1.43,0.09,2.16,0.17c18.71,2.06,31.56,17.73,29.54,36.88c-0.1,1.04-0.26,2.07-0.45,3.08L43.43,77.6z"/>
	<path class="st0" d="M32.41,52.59l8.08-3.82c0.74-0.35,1.75-0.12,2.25,0.52c0.5,0.64,0.3,1.44-0.44,1.79l-8.08,3.82
		c-0.74,0.35-1.75,0.12-2.25-0.52C31.47,53.74,31.67,52.94,32.41,52.59z"/>
	<path class="st0" d="M36.8,60.85l8.6-1.39c0.8-0.13,1.59,0.49,1.78,1.39c0.2,0.89-0.29,1.72-1.08,1.85l-8.61,1.4
		c-0.8,0.12-1.59-0.5-1.78-1.39C35.52,61.81,36.01,60.98,36.8,60.85z"/>
	<path class="st0" d="M22.39,42.41l3.17-8.27c0.29-0.77-0.12-1.69-0.93-2.07c-0.8-0.37-1.69-0.06-1.98,0.7l-3.17,8.27
		c-0.3,0.76,0.12,1.69,0.92,2.07C21.21,43.49,22.09,43.17,22.39,42.41z"/>
	<path class="st0" d="M27.46,45.37l5.36-7.26c0.49-0.67,1.3-0.7,1.79-0.06c0.5,0.63,0.5,1.69,0.01,2.35l-5.36,7.27
		c-0.49,0.67-1.3,0.69-1.79,0.06C26.97,47.09,26.97,46.04,27.46,45.37z"/>
	<path class="st0" d="M74.68,50.82l0.8,0.08l1.31-3.35c-0.56-0.03-1.12-0.08-1.68-0.14c-18.9-2.09-32.72-19.08-30.72-37.98
		c0.06-0.61,0.14-1.2,0.23-1.79l-3.47-0.68c-0.09,0.58-0.16,1.16-0.22,1.75C38.71,29.61,53.78,48.51,74.68,50.82z"/>
	<path class="st0" d="M55.2,32.89l-5.35,7.26c-0.49,0.67-0.49,1.73,0.01,2.36c0.5,0.64,1.31,0.61,1.8-0.06l5.35-7.27
		c0.5-0.67,0.49-1.72-0.01-2.36C56.5,32.19,55.69,32.22,55.2,32.89z"/>
	<path class="st0" d="M62.13,39.03l-3.15,8.31c-0.29,0.77,0.14,1.7,0.95,2.08c0.81,0.38,1.7,0.07,1.99-0.69l3.15-8.32
		c0.29-0.77-0.13-1.7-0.94-2.08C63.31,37.95,62.42,38.27,62.13,39.03z"/>
	<path class="st0" d="M47.64,20.69l-8.56,1.41c-0.79,0.12-1.58-0.49-1.77-1.37c-0.19-0.88,0.3-1.71,1.09-1.84l8.55-1.4
		c0.79-0.13,1.58,0.48,1.77,1.37C48.91,19.74,48.43,20.56,47.64,20.69z"/>
	<path class="st0" d="M50.22,26.58l-8.05,3.82c-0.74,0.35-0.94,1.14-0.44,1.78c0.5,0.63,1.5,0.86,2.24,0.51l8.06-3.82
		c0.74-0.35,0.94-1.14,0.44-1.78C51.97,26.46,50.96,26.23,50.22,26.58z"/>
</g>
</svg>
