<?xml version="1.0" encoding="utf-8"?>
<!-- Generator: Adobe Illustrator 24.0.1, SVG Export Plug-In . SVG Version: 6.00 Build 0)  -->
<svg version="1.1" id="圖層_1" xmlns="http://www.w3.org/2000/svg" xmlns:xlink="http://www.w3.org/1999/xlink" x="0px" y="0px"
	 viewBox="0 0 85.04 85.04" style="enable-background:new 0 0 85.04 85.04;" xml:space="preserve">
<style type="text/css">
	.st0{fill-rule:evenodd;clip-rule:evenodd;fill:#FBC728;}
	.st1{fill:#FBC728;}
	.st2{fill:#FAC728;}
	.st3{fill-rule:evenodd;clip-rule:evenodd;fill:#FCC728;}
</style>
<path class="st0" d="M50.73,46.21c-1.62-1.77-3.28-3.54-4.97-5.3c7.06-7.19,13.72-14.8,19.84-22.7c0.15,0.13,0.28,0.25,0.4,0.36
	c5.1,5.12,8.06,11.76,9.41,18.89C66.39,37.2,57.56,40.33,50.73,46.21z M66.16,64.79c-4.08-5.42-8.47-10.78-13.1-15.98
	c6.27-5.38,14.4-8.19,22.67-7.85C75.42,49.84,72.4,58.43,66.16,64.79z M41.56,74.58c-0.22-8.65,2.99-17.04,8.97-23.37
	C55.1,56.35,59.44,61.65,63.46,67C57.37,72.1,49.55,74.81,41.56,74.58z M19.22,64.99l-0.21-0.21c8.42-6.54,16.59-13.72,24.3-21.38
	c1.66,1.72,3.29,3.46,4.88,5.19c-6.66,6.93-10.28,16.16-10.13,25.71C30.96,73.37,24.33,70.11,19.22,64.99z M16.72,62.14
	c-3.71-4.66-6.04-10.14-6.8-16.05c0.21,0,0.42,0.02,0.63,0.02c9.4,0,18.44-3.64,25.25-10.23c1.55,1.5,2.9,2.81,4.13,4.05l0.96,0.96
	C33.23,48.51,25.11,55.64,16.72,62.14z M17.79,20.13c5.22,4.15,10.4,8.63,15.46,13.36c-6.34,6.08-14.83,9.36-23.61,9.11
	C9.44,34.34,12.35,26.3,17.79,20.13z M42.43,8.94c0.3,0,0.6,0,0.91,0.01c0.22,8.01-2.52,15.85-7.7,21.99
	c-5.04-4.7-10.21-9.17-15.41-13.33C26.3,12.02,34.22,8.94,42.43,8.94z M62.91,16c-6.04,7.79-12.62,15.31-19.58,22.4
	c-0.32-0.32-0.63-0.64-0.94-0.95c-1.25-1.25-2.62-2.58-4.2-4.11c5.71-6.69,8.79-15.3,8.65-24.1C52.73,10,58.24,12.3,62.91,16z
	 M42.42,5.71C22.47,5.71,6.3,21.89,6.3,41.83c0,19.95,16.17,36.12,36.12,36.12s36.12-16.17,36.12-36.12
	C78.54,21.89,62.37,5.71,42.42,5.71z"/>
</svg>
