<?xml version="1.0" encoding="utf-8"?>
<!-- Generator: Adobe Illustrator 24.0.1, SVG Export Plug-In . SVG Version: 6.00 Build 0)  -->
<svg version="1.1" id="圖層_1" xmlns="http://www.w3.org/2000/svg" xmlns:xlink="http://www.w3.org/1999/xlink" x="0px" y="0px"
	 viewBox="0 0 85.04 85.04" style="enable-background:new 0 0 85.04 85.04;" xml:space="preserve">
<style type="text/css">
	.st0{fill-rule:evenodd;clip-rule:evenodd;fill:#FBC728;}
	.st1{fill:#FBC728;}
	.st2{fill:#FAC728;}
	.st3{fill-rule:evenodd;clip-rule:evenodd;fill:#FCC728;}
</style>
<path class="st0" d="M74.1,49.5c0,7.58-5.36,14.43-12.81,14.43H22.46L8.58,42.97c0-6.44,1.8-9.48,8.57-9.26v11.32
	c0,1.68-0.09,2.11,1.59,2.11c1.66,0,1.74-0.43,1.74-2.11V23.72c0-7.16,6.95-14.43,14.41-14.43h24.8c6.9,0,14.41,6.81,14.41,14.43
	V49.5z M61.18,74.84H29.62v-7.57h31.56V74.84z M59.69,5.95h-24.8c-9.79,0-17.74,7.97-17.74,17.77v6.53
	C7.79,29.99,5.19,33.49,5.19,43.23c0,0.8,0.32,1.57,0.89,2.14l13.76,21.02c0.56,0.56,1.33,0.88,2.13,0.88h4.31v7.89
	c0,1.67,1.36,3.02,3.03,3.02H61.5c1.66,0,3.02-1.35,3.02-3.02v-8.15c8.35-1.44,12.91-8.74,12.91-17.51V23.72
	C77.43,13.92,69.47,5.95,59.69,5.95z"/>
</svg>
