<?xml version="1.0" encoding="utf-8"?>
<!-- Generator: Adobe Illustrator 24.0.1, SVG Export Plug-In . SVG Version: 6.00 Build 0)  -->
<svg version="1.1" id="圖層_1" xmlns="http://www.w3.org/2000/svg" xmlns:xlink="http://www.w3.org/1999/xlink" x="0px" y="0px"
	 viewBox="0 0 85.04 85.04" style="enable-background:new 0 0 85.04 85.04;" xml:space="preserve">
<style type="text/css">
	.st0{fill-rule:evenodd;clip-rule:evenodd;fill:#FBC728;}
	.st1{fill:#FBC728;}
	.st2{fill:#FAC728;}
	.st3{fill-rule:evenodd;clip-rule:evenodd;fill:#FCC728;}
</style>
<path class="st0" d="M58.63,78.93c0.91,0.21,5.61,1.51,10.53-1.95c10.73-7.56,4.98-18.15,5.76-21.16c0.58-2.21,0.14-2.17,2.19-6.65
	c1.11-2.43,1.57-6.11,1.65-10.31c0.06-3.53,0.4-3.78-1.02-4.96c-1.35-1.13-1.63-0.18-3.61,1.69c-1.42,1.33-4.28,1.89-6.1,1.58
	c-1.69-0.23-3.72-0.79-4.02-4.55c-0.33-4.17,4.07-6.06,9.46-11.82c1.62-1.73,2.84-7.95,3.48-10.04c0.71-2.33,0.19-3.92-1.92-3.84
	c-0.93,0.03-2.56,2.18-3.61,3.5c-1.73,2.16-4,3.87-7.07,4.85c-6.41,2.05-10.06-2.52-15.04-0.53c-4.97,1.99-5.24,3.99-6.11,8.27
	c-0.89,4.39-4.06,3.56-6.99,2.07c-1.03-0.52-1.03-0.82-1.25-2.02c-0.4-2.16-0.11-3.72-1.81-3.5c-1.58,0.21-0.96,0.55-1.58,3.27
	c-0.68,3-1.26,6.74-3.51,9.49C24.08,37.2,16,37.73,13.29,41.91c-1.16,1.79,4.97-1.02,4.97-1.02c4.06-0.9,8.55-2.24,11.17-5.45
	c3.73-4.57,4.51-8.28,4.51-8.28s0.32,0.21,2.86,1.51c2.55,1.29,8.41,0.35,9.18-3.47c0.76-3.72,1.66-5.71,4.67-6.92
	c4.33-1.73,8.28,2.39,13.85,0.6c4.81-1.54,8.27-5.41,8.27-5.41s-1.5,4.81-5.26,8.27c-5.05,4.65-7.13,8.14-6.63,11.74
	c0.8,5.67,3.27,6.14,5.72,6.62c4.59,0.91,9.18-1.35,9.18-1.35s-0.92,6.34-2.71,10.23c-1.78,3.9-1,5.9-1.5,7.83
	c-0.68,2.62,4.07,12.08-5.27,18.66C62.2,78.36,57.71,78.73,58.63,78.93z M37.71,41.04c-16.69-0.06-30.38,4.31-31.23,9.88
	c-0.02,0.19-0.04,0.37-0.04,0.55c0.01,1.76,1.28,3.41,3.52,4.86c5.25,3.41,15.83,5.74,27.97,5.74c11.86-0.01,22.05-2.22,27.2-5.49
	L65.1,69h0.12c-1.82,3.51-13.96,6.28-26.31,6.32c-12.41,0.05-27.21-2.92-28.95-7V56.33c-2.24-1.45-3.51-3.1-3.52-4.86
	c0-0.18,0.02-0.36,0.04-0.55H6.44L6.4,69h0.15c1.16,5.55,14.89,9.9,31.55,9.84c16.91-0.06,30-4.15,30.48-9.78h0.07l0.01-16.74
	c0.04-0.23,0.05-0.47,0.05-0.7C68.6,45.85,54.83,41.1,37.71,41.04z M10.02,51.39C9.99,48.62,21.89,44.01,37,44.38
	c14.85,0.37,27.03,3.55,28.27,6.55l-0.13-0.01l-0.01,1.23c-1.7,2.64-12.09,6.38-26.67,6.45C23.55,58.67,10.04,54.71,10.02,51.39z"/>
</svg>
