<?xml version="1.0" encoding="utf-8"?>
<!-- Generator: Adobe Illustrator 24.0.1, SVG Export Plug-In . SVG Version: 6.00 Build 0)  -->
<svg version="1.1" id="圖層_1" xmlns="http://www.w3.org/2000/svg" xmlns:xlink="http://www.w3.org/1999/xlink" x="0px" y="0px"
	 viewBox="0 0 85.04 85.04" style="enable-background:new 0 0 85.04 85.04;" xml:space="preserve">
<style type="text/css">
	.st0{fill-rule:evenodd;clip-rule:evenodd;fill:#FBC728;}
	.st1{fill:#FBC728;}
	.st2{fill:#FAC728;}
	.st3{fill-rule:evenodd;clip-rule:evenodd;fill:#FCC728;}
</style>
<g>
	<path class="st1" d="M42.83,77.38c-18.75,0-34-15.01-34-33.45c0-18.45,15.25-33.46,34-33.46s34,15.01,34,33.46
		C76.83,62.38,61.58,77.38,42.83,77.38z M42.83,14.47c-16.54,0-30,13.22-30,29.46c0,16.24,13.46,29.45,30,29.45s30-13.21,30-29.45
		C72.83,27.69,59.37,14.47,42.83,14.47z"/>
	<path class="st1" d="M66.33,25.47h-46c-1.1,0-2-0.9-2-2s0.9-2,2-2h46c1.1,0,2,0.9,2,2S67.43,25.47,66.33,25.47z"/>
	<path class="st1" d="M66.33,66.47h-47c-1.1,0-2-0.9-2-2c0-1.1,0.9-2,2-2h47c1.1,0,2,0.9,2,2C68.33,65.58,67.43,66.47,66.33,66.47z"
		/>
	<path class="st1" d="M42.83,56.67c-7,0-12.7-5.7-12.7-12.7c0-7,5.7-12.7,12.7-12.7s12.7,5.7,12.7,12.7
		C55.53,50.98,49.83,56.67,42.83,56.67z M42.83,34.27c-5.35,0-9.7,4.35-9.7,9.7s4.35,9.7,9.7,9.7s9.7-4.35,9.7-9.7
		S48.18,34.27,42.83,34.27z"/>
	<rect x="40.83" y="38.97" class="st0" width="4" height="11"/>
</g>
</svg>
