<?xml version="1.0" encoding="utf-8"?>
<!-- Generator: Adobe Illustrator 24.0.1, SVG Export Plug-In . SVG Version: 6.00 Build 0)  -->
<svg version="1.1" id="圖層_1" xmlns="http://www.w3.org/2000/svg" xmlns:xlink="http://www.w3.org/1999/xlink" x="0px" y="0px"
	 viewBox="0 0 85.04 85.04" style="enable-background:new 0 0 85.04 85.04;" xml:space="preserve">
<style type="text/css">
	.st0{fill-rule:evenodd;clip-rule:evenodd;fill:#FBC728;}
	.st1{fill:#FBC728;}
	.st2{fill:#FAC728;}
	.st3{fill-rule:evenodd;clip-rule:evenodd;fill:#FCC728;}
</style>
<path class="st0" d="M6.7,41.73c0,19.95,16.17,36.12,36.12,36.12s36.12-16.17,36.12-36.12c0-19.94-16.17-36.12-36.12-36.12
	S6.7,21.79,6.7,41.73z M9.92,41.73v-0.56L18,35.33l11,3.57l4.21,12.9L25.6,62.3l-8.47-0.01C12.62,56.65,9.92,49.51,9.92,41.73z
	 M15.51,23.38c4.29-6.37,10.75-11.16,18.31-13.31l7.65,5.58v10.98L29,35.72L18.43,32.4L15.51,23.38z M52.15,10.17
	c7.54,2.23,13.95,7.08,18.18,13.5l-2.89,8.84l-10.49,3.07l-12.77-9.25V15.94L52.15,10.17z M75.72,41.07v0.66
	c0,7.83-2.73,15.01-7.29,20.66l-8.56-0.01l-7.18-9.95l4.44-13.72l10.82-3.31L75.72,41.07z M54.86,72.37
	c-3.73,1.46-7.79,2.27-12.04,2.27c-4.41,0-8.61-0.87-12.45-2.44l-2.62-8.09l7.48-10.31l14.99-0.02L57.59,64L54.86,72.37z"/>
</svg>
