<?xml version="1.0" encoding="utf-8"?>
<!-- Generator: Adobe Illustrator 24.0.1, SVG Export Plug-In . SVG Version: 6.00 Build 0)  -->
<svg version="1.1" id="圖層_1" xmlns="http://www.w3.org/2000/svg" xmlns:xlink="http://www.w3.org/1999/xlink" x="0px" y="0px"
	 viewBox="0 0 85.04 85.04" style="enable-background:new 0 0 85.04 85.04;" xml:space="preserve">
<style type="text/css">
	.st0{fill-rule:evenodd;clip-rule:evenodd;fill:#FBC728;}
	.st1{fill:#FBC728;}
	.st2{fill:#FAC728;}
	.st3{fill-rule:evenodd;clip-rule:evenodd;fill:#FCC728;}
</style>
<g>
	<path class="st1" d="M42.9,75.67c-18.75,0-34-15.01-34-33.45c0-18.45,15.25-33.46,34-33.46s34,15.01,34,33.46
		C76.9,60.67,61.64,75.67,42.9,75.67z M42.9,12.76c-16.54,0-30,13.22-30,29.46c0,16.24,13.46,29.45,30,29.45s30-13.21,30-29.45
		C72.9,25.98,59.44,12.76,42.9,12.76z"/>
	<path class="st1" d="M13.83,31.1c-0.29,0-0.59-0.06-0.86-0.2c-1-0.48-1.42-1.67-0.94-2.67c5.25-10.92,15-11.04,20.42-9.34
		c12.12-11.43,25.81-6.43,26.4-6.21c1.03,0.39,1.55,1.55,1.16,2.58c-0.39,1.03-1.54,1.55-2.57,1.16c-0.53-0.2-12.6-4.51-23.06,6.17
		c-0.57,0.59-1.45,0.76-2.2,0.44c-0.44-0.18-11.1-4.41-16.54,6.92C15.29,30.68,14.58,31.1,13.83,31.1z"/>
	<path class="st1" d="M24.64,69.77c-0.75,0-1.48-0.43-1.81-1.16c-0.46-1-0.03-2.19,0.97-2.66c0.1-0.05,9.81-4.63,15.39-12.5
		c0.47-0.66,1.28-0.97,2.07-0.8c0.21,0.05,21.06,4.6,31.36-4.19c0.84-0.72,2.1-0.62,2.82,0.22c0.72,0.84,0.62,2.1-0.22,2.82
		c-10.34,8.82-28.51,6.24-33.54,5.31c-6.25,8.1-15.77,12.57-16.19,12.76C25.2,69.71,24.92,69.77,24.64,69.77z"/>
	<path class="st1" d="M40.81,55.88c-0.91,0-1.73-0.62-1.94-1.54l-7.59-32.13c-0.25-1.07,0.41-2.15,1.49-2.41
		c1.07-0.25,2.15,0.41,2.41,1.49l7.59,32.13c0.25,1.07-0.41,2.15-1.49,2.41C41.12,55.86,40.97,55.88,40.81,55.88z"/>
	<path class="st1" d="M32.23,65.05c-0.53,0-1.06-0.21-1.46-0.63C12.18,44.69,18.66,21.78,18.95,20.82c0.31-1.06,1.42-1.66,2.48-1.35
		c1.06,0.31,1.66,1.42,1.35,2.48c-0.08,0.28-6.05,21.75,10.9,39.73c0.76,0.8,0.72,2.07-0.08,2.83
		C33.21,64.87,32.72,65.05,32.23,65.05z"/>
	<path class="st1" d="M36.17,31.55c-0.7,0-1.38-0.37-1.75-1.03c-0.54-0.97-0.19-2.18,0.78-2.72c0.93-0.52,22.95-12.58,36.03-3.8
		c0.92,0.62,1.16,1.86,0.55,2.78c-0.62,0.92-1.86,1.16-2.78,0.55c-11.05-7.42-31.65,3.86-31.86,3.97
		C36.83,31.47,36.5,31.55,36.17,31.55z"/>
	<path class="st1" d="M37.76,42.99c-1.01,0-1.88-0.77-1.99-1.79c-0.11-1.1,0.69-2.08,1.78-2.19c0.31-0.03,30.65-3.16,35.23-3.8
		c1.09-0.15,2.1,0.61,2.26,1.71c0.15,1.09-0.61,2.1-1.71,2.26c-4.65,0.65-34.12,3.69-35.37,3.82C37.9,42.99,37.83,42.99,37.76,42.99
		z"/>
	<path class="st1" d="M41.22,75.63c-0.94,0-1.79-0.67-1.96-1.63c-0.2-1.09,0.51-2.13,1.6-2.33c7.11-1.32,11.05-11,12.12-14.52
		c-0.06-0.32-0.04-0.65,0.07-0.98c0.21-0.64,0.77-2.33,2.5-2.06c0.97,0.15,1.7,1.02,1.72,1.99c0.02,1.13-4.16,17.36-15.68,19.5
		C41.46,75.62,41.34,75.63,41.22,75.63z"/>
	<path class="st1" d="M61.04,69.59c-0.44,0-0.88-0.14-1.25-0.44c-0.86-0.69-1-1.95-0.31-2.81c1.27-1.58,2.79-7.7,3.47-11.53
		c0.19-1.09,1.23-1.81,2.32-1.62c1.09,0.19,1.81,1.23,1.62,2.32c-0.3,1.71-1.92,10.4-4.29,13.35
		C62.21,69.34,61.63,69.59,61.04,69.59z"/>
</g>
</svg>
